<svg version="1.0" xmlns="http://www.w3.org/2000/svg" width="682.667" height="682.667" viewBox="0 0 512 512"><path d="M238 115.1c-47.6 4.4-86.1 28.1-107.8 66.4-14 24.9-19.4 56.7-15.8 93 2.9 29 10.4 48.2 27.3 70.3 10.8 14.2 29.6 28.9 46.7 36.6 8.6 4 23.6 8.5 35.9 11 19.2 4 49.4 3.8 69.3-.4 46.5-9.7 83.1-40 97.8-80.8 1.4-4 2.6-8 2.6-8.8 0-1.2-6.6-1.4-46.2-1.4h-46.3l-3 5.1c-10 17-32.8 25.3-56 20.4-21.7-4.6-37.2-20.9-40.8-43l-1.3-8 99.6-.3 99.7-.2.7-4.6c1.1-8.7.6-34.5-1-45.3-1.9-13.2-8-31.9-14-42.8-26.6-48.9-80.2-73.3-147.4-67.2zm36.4 67.9c20.1 5.1 33.8 19 36.6 37.3.6 3.7.8 7.2.5 7.8-.4.5-22 .9-55.7.9h-55l.7-3.8c4-21.4 19.2-37.5 40.1-42.6 8.9-2.1 23.6-2 32.8.4z"/></svg>