<svg version="1.1" id="Слой_1" xmlns="http://www.w3.org/2000/svg" x="0" y="0" viewBox="0 0 245 108" xml:space="preserve"><linearGradient id="SVGID_1_" gradientUnits="userSpaceOnUse" x1="122.593" y1="96.202" x2="122.593" y2="19.211"><stop offset="0" stop-color="#35cd8c"/><stop offset=".528" stop-color="#35cd53"/><stop offset="1" stop-color="#35cd6a"/></linearGradient><path d="M42.4 56.2c0 1.2-.1 2.4-.2 3.6h-28c.2 2.5 1 4.4 2.4 5.8 1.4 1.3 3.2 1.9 5.3 1.9 3.1 0 5.2-1.3 6.4-3.9h13.1c-.7 2.6-1.9 5-3.7 7.1-1.7 2.1-3.9 3.8-6.6 5-2.6 1.2-5.6 1.8-8.9 1.8-3.9 0-7.5-.8-10.5-2.5-3.1-1.7-5.5-4.1-7.2-7.2C2.8 64.7 2 61.1 2 56.9s.8-7.8 2.5-11c1.7-3.1 4.1-5.5 7.2-7.2 3.1-1.7 6.6-2.5 10.6-2.5 3.9 0 7.4.8 10.4 2.5 3 1.6 5.4 4 7.1 7 1.7 3 2.6 6.5 2.6 10.5zM29.8 53c0-2.1-.7-3.8-2.2-5.1S24.4 46 22.2 46c-2.1 0-3.8.6-5.3 1.8-1.4 1.2-2.3 2.9-2.6 5.1h15.5zm42.9 24L65 65.8 58.5 77H45.1l13.3-20.6-13.6-19.7h13.9l7.7 11.1 6.5-11.1h13.3L72.7 57l13.9 20H72.7zm31-34.6c1.2-1.9 2.9-3.4 5-4.5 2.1-1.2 4.6-1.7 7.4-1.7 3.3 0 6.3.8 9 2.5s4.8 4.1 6.3 7.2c1.6 3.1 2.4 6.8 2.4 10.9s-.8 7.8-2.4 11c-1.5 3.1-3.7 5.6-6.3 7.3-2.7 1.7-5.7 2.5-9 2.5-2.8 0-5.3-.6-7.4-1.7-2.1-1.2-3.8-2.6-5-4.5v24.8H91.3V36.7h12.3v5.7zm17.6 14.4c0-3.1-.9-5.5-2.6-7.2-1.7-1.8-3.8-2.7-6.3-2.7s-4.5.9-6.3 2.7c-1.7 1.8-2.5 4.2-2.5 7.3 0 3.1.8 5.5 2.5 7.3 1.7 1.8 3.8 2.7 6.3 2.7s4.5-.9 6.3-2.7c1.7-1.9 2.6-4.3 2.6-7.4zm25.2-24.2c-2.2 0-3.9-.6-5.3-1.9-1.3-1.3-2-2.9-2-4.8s.7-3.5 2-4.8c1.4-1.3 3.2-1.9 5.3-1.9 2.1 0 3.8.6 5.2 1.9 1.4 1.3 2.1 2.8 2.1 4.8 0 1.9-.7 3.5-2.1 4.8-1.4 1.2-3.1 1.9-5.2 1.9zm6.1 4.1V77h-12.3V36.7h12.3zm6.5 20.2c0-4.2.8-7.8 2.5-11 1.7-3.1 4.1-5.5 7.1-7.2 3.1-1.7 6.6-2.5 10.5-2.5 5.1 0 9.3 1.3 12.6 4 3.4 2.6 5.7 6.4 6.7 11.2h-13.1c-1.1-3.1-3.2-4.6-6.4-4.6-2.3 0-4.1.9-5.4 2.7-1.3 1.7-2 4.2-2 7.5s.7 5.8 2 7.6c1.3 1.7 3.2 2.6 5.4 2.6 3.2 0 5.3-1.5 6.4-4.6h13.1c-1.1 4.7-3.3 8.4-6.7 11.1-3.4 2.7-7.6 4-12.6 4-3.9 0-7.5-.8-10.5-2.5s-5.4-4.1-7.1-7.2c-1.6-3.3-2.5-6.9-2.5-11.1zm84.1-.7c0 1.2-.1 2.4-.2 3.6h-27.9c.2 2.5 1 4.4 2.4 5.8 1.4 1.3 3.2 1.9 5.3 1.9 3.1 0 5.2-1.3 6.4-3.9h13.1c-.7 2.6-1.9 5-3.7 7.1-1.7 2.1-3.9 3.8-6.6 5-2.6 1.2-5.6 1.8-8.9 1.8-3.9 0-7.5-.8-10.5-2.5-3.1-1.7-5.5-4.1-7.2-7.2-1.7-3.1-2.6-6.8-2.6-11s.8-7.8 2.5-11c1.7-3.1 4.1-5.5 7.2-7.2s6.6-2.5 10.6-2.5c3.9 0 7.4.8 10.4 2.5 3 1.6 5.4 4 7.1 7 1.7 3.1 2.6 6.6 2.6 10.6zM230.6 53c0-2.1-.7-3.8-2.2-5.1S225.2 46 223 46c-2.1 0-3.8.6-5.3 1.8-1.4 1.2-2.3 2.9-2.6 5.1h15.5z" fill="url(#SVGID_1_)"/></svg>