<svg width="30" height="30" viewBox="0 0 30 30" fill="none" xmlns="http://www.w3.org/2000/svg"><path d="M25.607 19.393a14.94 14.94 0 00-5.7-3.575 8.669 8.669 0 003.765-7.146C23.672 3.89 19.782 0 15 0S6.328 3.89 6.328 8.672a8.669 8.669 0 003.766 7.146 14.941 14.941 0 00-5.7 3.575A14.902 14.902 0 000 30h2.344c0-6.979 5.677-12.656 12.656-12.656 6.979 0 12.656 5.677 12.656 12.656H30c0-4.007-1.56-7.773-4.393-10.607zM15 15a6.335 6.335 0 01-6.328-6.328A6.335 6.335 0 0115 2.344a6.335 6.335 0 016.328 6.328A6.335 6.335 0 0115 15z" fill="#2E266F"/></svg>