<svg width="178" height="49" viewBox="0 0 178 49" fill="none" xmlns="http://www.w3.org/2000/svg"><path d="M0 10C0 4.477 4.477 0 10 0h158c5.523 0 10 4.477 10 10v29c0 5.523-4.477 10-10 10H10C4.477 49 0 44.523 0 39V10z" fill="#000"/><path d="M67.528 10.636c.912 0 1.7.172 2.364.516.672.336 1.184.82 1.536 1.452.36.632.54 1.376.54 2.232 0 .856-.18 1.6-.54 2.232a3.524 3.524 0 01-1.536 1.44c-.664.328-1.452.492-2.364.492h-2.604v-8.364h2.604zm0 7.464c1.08 0 1.904-.284 2.472-.852.568-.576.852-1.38.852-2.412 0-1.04-.288-1.852-.864-2.436-.568-.584-1.388-.876-2.46-.876h-1.512V18.1h1.512zm8.748 1.008a3.4 3.4 0 01-1.68-.42A3.053 3.053 0 0173.42 17.5c-.28-.52-.42-1.12-.42-1.8 0-.672.144-1.264.432-1.776.296-.52.696-.916 1.2-1.188a3.424 3.424 0 011.692-.42c.624 0 1.188.14 1.692.42.504.272.9.664 1.188 1.176.296.512.444 1.108.444 1.788 0 .68-.152 1.28-.456 1.8a3.09 3.09 0 01-1.212 1.188c-.512.28-1.08.42-1.704.42zm0-.96c.392 0 .76-.092 1.104-.276.344-.184.62-.46.828-.828.216-.368.324-.816.324-1.344 0-.528-.104-.976-.312-1.344a2.003 2.003 0 00-.816-.816 2.237 2.237 0 00-1.092-.276c-.4 0-.768.092-1.104.276a1.951 1.951 0 00-.792.816c-.2.368-.3.816-.3 1.344 0 .536.096.988.288 1.356.2.368.464.644.792.828.328.176.688.264 1.08.264zm13.568-5.724L87.792 19h-1.128l-1.584-5.22L83.496 19h-1.128l-2.064-6.576h1.116l1.512 5.52 1.632-5.52h1.116l1.596 5.532 1.488-5.532h1.08zm4.288-.12c.8 0 1.448.244 1.944.732.496.48.744 1.176.744 2.088V19h-1.08v-3.72c0-.656-.164-1.156-.492-1.5-.328-.352-.776-.528-1.344-.528-.576 0-1.036.18-1.38.54-.336.36-.504.884-.504 1.572V19h-1.092v-6.576h1.092v.936c.216-.336.508-.596.876-.78a2.774 2.774 0 011.236-.276zm5.564-2.184V19h-1.092v-8.88h1.092zm4.729 8.988a3.4 3.4 0 01-1.68-.42 3.053 3.053 0 01-1.176-1.188c-.28-.52-.42-1.12-.42-1.8 0-.672.144-1.264.432-1.776.296-.52.696-.916 1.2-1.188a3.424 3.424 0 011.692-.42c.624 0 1.188.14 1.692.42.504.272.9.664 1.188 1.176.296.512.444 1.108.444 1.788 0 .68-.152 1.28-.456 1.8a3.09 3.09 0 01-1.212 1.188c-.512.28-1.08.42-1.704.42zm0-.96c.392 0 .76-.092 1.104-.276.344-.184.62-.46.828-.828.216-.368.324-.816.324-1.344 0-.528-.104-.976-.312-1.344a2.003 2.003 0 00-.816-.816 2.237 2.237 0 00-1.092-.276c-.4 0-.768.092-1.104.276a1.951 1.951 0 00-.792.816c-.2.368-.3.816-.3 1.344 0 .536.096.988.288 1.356.2.368.464.644.792.828.328.176.688.264 1.08.264zm4.4-2.46c0-.672.136-1.26.408-1.764a2.964 2.964 0 011.116-1.188 3.11 3.11 0 011.596-.42c.576 0 1.076.124 1.5.372.424.248.74.56.948.936v-1.2h1.104V19h-1.104v-1.224c-.216.384-.54.704-.972.96-.424.248-.92.372-1.488.372a2.98 2.98 0 01-1.584-.432 3.03 3.03 0 01-1.116-1.212c-.272-.52-.408-1.112-.408-1.776zm5.568.012c0-.496-.1-.928-.3-1.296a2.065 2.065 0 00-.816-.84 2.14 2.14 0 00-1.116-.3c-.408 0-.78.096-1.116.288a2.09 2.09 0 00-.804.84c-.2.368-.3.8-.3 1.296 0 .504.1.944.3 1.32.2.368.468.652.804.852a2.21 2.21 0 001.116.288c.408 0 .78-.096 1.116-.288.344-.2.616-.484.816-.852.2-.376.3-.812.3-1.308zm2.541-.012c0-.672.136-1.26.408-1.764a2.964 2.964 0 011.116-1.188c.48-.28 1.016-.42 1.608-.42.512 0 .988.12 1.428.36.44.232.776.54 1.008.924v-3.48h1.104V19h-1.104v-1.236a2.598 2.598 0 01-.96.972c-.424.248-.92.372-1.488.372a3.043 3.043 0 01-1.596-.432 3.03 3.03 0 01-1.116-1.212c-.272-.52-.408-1.112-.408-1.776zm5.568.012c0-.496-.1-.928-.3-1.296a2.065 2.065 0 00-.816-.84 2.14 2.14 0 00-1.116-.3c-.408 0-.78.096-1.116.288a2.09 2.09 0 00-.804.84c-.2.368-.3.8-.3 1.296 0 .504.1.944.3 1.32.2.368.468.652.804.852a2.21 2.21 0 001.116.288c.408 0 .78-.096 1.116-.288.344-.2.616-.484.816-.852.2-.376.3-.812.3-1.308zm9.941 3.384c-.776 0-1.484-.18-2.124-.54a4.097 4.097 0 01-1.524-1.524c-.368-.656-.552-1.392-.552-2.208 0-.816.184-1.548.552-2.196a3.984 3.984 0 011.524-1.524 4.185 4.185 0 012.124-.552c.784 0 1.496.184 2.136.552.64.36 1.144.864 1.512 1.512.368.648.552 1.384.552 2.208 0 .824-.184 1.56-.552 2.208a4.01 4.01 0 01-1.512 1.524c-.64.36-1.352.54-2.136.54zm0-.948a3.05 3.05 0 001.572-.408 2.82 2.82 0 001.104-1.164c.272-.504.408-1.088.408-1.752 0-.672-.136-1.256-.408-1.752a2.844 2.844 0 00-1.092-1.164 3.073 3.073 0 00-1.584-.408c-.592 0-1.12.136-1.584.408-.464.272-.832.66-1.104 1.164-.264.496-.396 1.08-.396 1.752 0 .664.132 1.248.396 1.752.272.504.64.892 1.104 1.164.472.272 1 .408 1.584.408zm8.845-5.832c.8 0 1.448.244 1.944.732.496.48.744 1.176.744 2.088V19h-1.08v-3.72c0-.656-.164-1.156-.492-1.5-.328-.352-.776-.528-1.344-.528-.576 0-1.036.18-1.38.54-.336.36-.504.884-.504 1.572V19h-1.092v-6.576h1.092v.936c.216-.336.508-.596.876-.78a2.774 2.774 0 011.236-.276zm12.819-1.668v.888h-2.28V19h-1.092v-7.476h-2.292v-.888h5.664zm4.608 1.668c.496 0 .944.108 1.344.324.4.208.712.524.936.948.232.424.348.94.348 1.548V19h-1.08v-3.72c0-.656-.164-1.156-.492-1.5-.328-.352-.776-.528-1.344-.528-.576 0-1.036.18-1.38.54-.336.36-.504.884-.504 1.572V19h-1.092v-8.88h1.092v3.24a2.16 2.16 0 01.888-.78 2.933 2.933 0 011.284-.276zm10.412 3.156c0 .208-.012.428-.036.66h-5.256c.04.648.26 1.156.66 1.524.408.36.9.54 1.476.54.472 0 .864-.108 1.176-.324.32-.224.544-.52.672-.888h1.176a2.856 2.856 0 01-1.056 1.548c-.528.392-1.184.588-1.968.588-.624 0-1.184-.14-1.68-.42a2.995 2.995 0 01-1.152-1.188c-.28-.52-.42-1.12-.42-1.8 0-.68.136-1.276.408-1.788a2.836 2.836 0 011.14-1.176c.496-.28 1.064-.42 1.704-.42.624 0 1.176.136 1.656.408.48.272.848.648 1.104 1.128.264.472.396 1.008.396 1.608zm-1.128-.228c0-.416-.092-.772-.276-1.068a1.737 1.737 0 00-.756-.684c-.312-.16-.66-.24-1.044-.24-.552 0-1.024.176-1.416.528-.384.352-.604.84-.66 1.464h4.152zm-99.083 20.78h-4.074l-.7 1.988h-1.666l3.486-9.744h1.848L71.296 38h-1.68l-.7-1.988zm-.448-1.302l-1.582-4.522-1.596 4.522h3.178zm5.94-3.29c.27-.355.64-.653 1.106-.896a3.377 3.377 0 011.582-.364c.672 0 1.283.168 1.834.504.56.327.998.789 1.316 1.386.317.597.476 1.283.476 2.058 0 .775-.159 1.47-.476 2.086a3.601 3.601 0 01-1.316 1.428 3.452 3.452 0 01-1.834.504c-.588 0-1.11-.117-1.568-.35a3.598 3.598 0 01-1.12-.896v4.788h-1.596V30.286h1.596v1.134zm4.69 2.688c0-.532-.112-.99-.336-1.372a2.137 2.137 0 00-.868-.882 2.253 2.253 0 00-1.148-.308c-.402 0-.784.103-1.148.308a2.36 2.36 0 00-.868.896c-.215.392-.322.854-.322 1.386 0 .532.107.999.322 1.4.224.392.513.69.868.896.364.205.746.308 1.148.308.41 0 .793-.103 1.148-.308.364-.215.653-.523.868-.924.224-.401.336-.868.336-1.4zm4.798-2.688c.27-.355.64-.653 1.106-.896a3.377 3.377 0 011.582-.364c.672 0 1.283.168 1.834.504.56.327.999.789 1.316 1.386.317.597.476 1.283.476 2.058 0 .775-.159 1.47-.476 2.086a3.601 3.601 0 01-1.316 1.428 3.452 3.452 0 01-1.834.504c-.588 0-1.11-.117-1.568-.35a3.597 3.597 0 01-1.12-.896v4.788H82.3V30.286h1.596v1.134zm4.69 2.688c0-.532-.112-.99-.336-1.372a2.138 2.138 0 00-.868-.882 2.253 2.253 0 00-1.148-.308c-.401 0-.784.103-1.148.308a2.359 2.359 0 00-.868.896c-.215.392-.322.854-.322 1.386 0 .532.107.999.322 1.4.224.392.513.69.868.896.364.205.747.308 1.148.308.41 0 .793-.103 1.148-.308.364-.215.653-.523.868-.924.224-.401.336-.868.336-1.4zm10.045 3.99c-.653 0-1.241-.112-1.764-.336-.523-.233-.933-.56-1.232-.98-.299-.42-.448-.91-.448-1.47h1.708c.037.42.2.765.49 1.036.299.27.714.406 1.246.406.55 0 .98-.13 1.288-.392.308-.27.462-.616.462-1.036 0-.327-.098-.593-.294-.798a1.848 1.848 0 00-.714-.476c-.28-.112-.672-.233-1.176-.364a12.24 12.24 0 01-1.554-.504 2.63 2.63 0 01-1.008-.812c-.28-.364-.42-.85-.42-1.456 0-.56.14-1.05.42-1.47.28-.42.672-.742 1.176-.966.504-.224 1.087-.336 1.75-.336.943 0 1.713.238 2.31.714.607.467.943 1.11 1.008 1.932h-1.764c-.028-.355-.196-.658-.504-.91s-.714-.378-1.218-.378c-.457 0-.83.117-1.12.35-.29.233-.434.57-.434 1.008 0 .299.089.546.266.742.187.187.42.336.7.448.28.112.663.233 1.148.364.644.177 1.167.355 1.568.532.411.177.756.453 1.036.826.289.364.434.854.434 1.47 0 .495-.135.961-.406 1.4-.261.439-.649.793-1.162 1.064-.504.261-1.101.392-1.792.392zm7.105-6.51v4.27c0 .29.066.5.196.63.14.121.374.182.7.182h.98V38h-1.26c-.718 0-1.269-.168-1.652-.504-.382-.336-.574-.882-.574-1.638v-4.27h-.91v-1.302h.91v-1.918h1.61v1.918h1.876v1.302h-1.876zm6.693 6.538a3.995 3.995 0 01-1.974-.49 3.633 3.633 0 01-1.386-1.4c-.336-.607-.504-1.307-.504-2.1 0-.784.173-1.48.518-2.086a3.584 3.584 0 011.414-1.4 4.105 4.105 0 012.002-.49c.738 0 1.405.163 2.002.49a3.572 3.572 0 011.414 1.4c.346.607.518 1.302.518 2.086 0 .784-.177 1.48-.532 2.086a3.715 3.715 0 01-1.456 1.414 4.18 4.18 0 01-2.016.49zm0-1.386c.411 0 .794-.098 1.148-.294.364-.196.658-.49.882-.882.224-.392.336-.868.336-1.428 0-.56-.107-1.031-.322-1.414a2.157 2.157 0 00-.854-.882 2.333 2.333 0 00-1.148-.294c-.41 0-.793.098-1.148.294a2.11 2.11 0 00-.826.882c-.205.383-.308.854-.308 1.414 0 .83.21 1.475.63 1.932.43.448.966.672 1.61.672zm7.178-5.334c.233-.392.541-.695.924-.91.392-.224.854-.336 1.386-.336v1.652h-.406c-.625 0-1.101.159-1.428.476-.317.317-.476.868-.476 1.652V38h-1.596v-7.714h1.596v1.12zm10.847 2.548c0 .29-.019.55-.056.784h-5.894c.047.616.275 1.11.686 1.484.411.373.915.56 1.512.56.859 0 1.465-.36 1.82-1.078h1.722a3.496 3.496 0 01-1.274 1.75c-.607.448-1.363.672-2.268.672-.737 0-1.4-.163-1.988-.49a3.66 3.66 0 01-1.372-1.4c-.327-.607-.49-1.307-.49-2.1 0-.793.159-1.489.476-2.086a3.444 3.444 0 011.358-1.4c.588-.327 1.26-.49 2.016-.49.728 0 1.377.159 1.946.476a3.351 3.351 0 011.33 1.344c.317.57.476 1.227.476 1.974zm-1.666-.504c-.009-.588-.219-1.06-.63-1.414-.411-.355-.919-.532-1.526-.532-.551 0-1.022.177-1.414.532-.392.345-.625.817-.7 1.414h4.27zM29.302 42c-5.06-.03-9.246-10.359-9.246-15.62 0-8.593 6.447-10.474 8.93-10.474 1.12 0 2.316.44 3.37.829.738.271 1.5.551 1.925.551.254 0 .852-.238 1.38-.447 1.126-.449 2.528-1.006 4.16-1.006h.01c1.219 0 4.914.268 7.136 3.604l.52.782-.748.565c-1.07.808-3.023 2.28-3.023 5.198 0 3.455 2.211 4.784 3.273 5.423.47.282.955.573.955 1.209 0 .415-3.315 9.334-8.13 9.334-1.177 0-2.01-.354-2.745-.666-.743-.316-1.384-.588-2.443-.588-.537 0-1.216.253-1.935.523-.982.367-2.094.783-3.356.783h-.033zM40.331 8c.126 4.52-3.107 7.657-6.336 7.46C33.462 11.853 37.223 8 40.33 8z" fill="#fff"/></svg>