<svg width="178" height="49" viewBox="0 0 178 49" fill="none" xmlns="http://www.w3.org/2000/svg"><path d="M0 10C0 4.477 4.477 0 10 0h158c5.523 0 10 4.477 10 10v29c0 5.523-4.477 10-10 10H10C4.477 49 0 44.523 0 39V10z" fill="#000"/><path d="M78.26 13.06a2.563 2.563 0 00-1.008-1.128c-.44-.272-.952-.408-1.536-.408-.584 0-1.112.136-1.584.408a2.842 2.842 0 00-1.104 1.152c-.264.496-.396 1.072-.396 1.728 0 .656.132 1.232.396 1.728.272.496.64.88 1.104 1.152.472.264 1 .396 1.584.396.816 0 1.488-.244 2.016-.732s.836-1.148.924-1.98H75.32v-.888h4.5v.84a4.193 4.193 0 01-.648 1.896 4.074 4.074 0 01-1.452 1.356c-.6.328-1.268.492-2.004.492-.776 0-1.484-.18-2.124-.54a4.097 4.097 0 01-1.524-1.524c-.368-.648-.552-1.38-.552-2.196 0-.816.184-1.548.552-2.196a3.984 3.984 0 011.524-1.524 4.185 4.185 0 012.124-.552c.888 0 1.672.22 2.352.66.688.44 1.188 1.06 1.5 1.86H78.26zm4.096-1.536v2.796h3.048v.9h-3.048v2.88h3.408v.9h-4.5v-8.376h4.5v.9h-3.408zm10.208-.888v.888h-2.28V19h-1.092v-7.476H86.9v-.888h5.664zm5.636 0V19h-1.092v-8.364H98.2zm7.009 0v.888h-2.28V19h-1.092v-7.476h-2.292v-.888h5.664zm8.335 8.448c-.776 0-1.484-.18-2.124-.54a4.097 4.097 0 01-1.524-1.524c-.368-.656-.552-1.392-.552-2.208 0-.816.184-1.548.552-2.196a3.984 3.984 0 011.524-1.524 4.185 4.185 0 012.124-.552c.784 0 1.496.184 2.136.552.64.36 1.144.864 1.512 1.512.368.648.552 1.384.552 2.208 0 .824-.184 1.56-.552 2.208a4.01 4.01 0 01-1.512 1.524c-.64.36-1.352.54-2.136.54zm0-.948a3.05 3.05 0 001.572-.408 2.82 2.82 0 001.104-1.164c.272-.504.408-1.088.408-1.752 0-.672-.136-1.256-.408-1.752a2.844 2.844 0 00-1.092-1.164 3.073 3.073 0 00-1.584-.408c-.592 0-1.12.136-1.584.408-.464.272-.832.66-1.104 1.164-.264.496-.396 1.08-.396 1.752 0 .664.132 1.248.396 1.752.272.504.64.892 1.104 1.164.472.272 1 .408 1.584.408zm12.218.864h-1.092l-4.392-6.66V19h-1.092v-8.376h1.092l4.392 6.648v-6.648h1.092V19zm-46.67 13.07a2.53 2.53 0 00-1.05-1.092c-.448-.252-.966-.378-1.554-.378-.644 0-1.218.145-1.722.434-.504.29-.9.7-1.19 1.232-.28.532-.42 1.148-.42 1.848 0 .7.14 1.32.42 1.862.29.532.686.943 1.19 1.232.504.29 1.078.434 1.722.434.868 0 1.573-.243 2.114-.728.541-.485.873-1.143.994-1.974h-3.654v-1.274h5.362v1.246a4.744 4.744 0 01-.812 2.086 4.772 4.772 0 01-1.694 1.526c-.69.373-1.46.56-2.31.56-.915 0-1.75-.21-2.506-.63a4.854 4.854 0 01-1.806-1.778c-.439-.756-.658-1.61-.658-2.562 0-.952.22-1.806.658-2.562a4.749 4.749 0 011.806-1.764c.765-.43 1.6-.644 2.506-.644 1.036 0 1.955.257 2.758.77.812.504 1.4 1.223 1.764 2.156h-1.918zm7.132 7.056a3.995 3.995 0 01-1.974-.49 3.633 3.633 0 01-1.386-1.4c-.336-.607-.504-1.307-.504-2.1 0-.784.173-1.48.518-2.086a3.579 3.579 0 011.414-1.4 4.103 4.103 0 012.002-.49c.737 0 1.405.163 2.002.49a3.577 3.577 0 011.414 1.4c.346.607.518 1.302.518 2.086 0 .784-.177 1.48-.532 2.086a3.72 3.72 0 01-1.456 1.414 4.183 4.183 0 01-2.016.49zm0-1.386c.41 0 .793-.098 1.148-.294.364-.196.658-.49.882-.882.224-.392.336-.868.336-1.428 0-.56-.107-1.031-.322-1.414a2.163 2.163 0 00-.854-.882 2.335 2.335 0 00-1.148-.294c-.41 0-.793.098-1.148.294a2.11 2.11 0 00-.826.882c-.205.383-.308.854-.308 1.414 0 .83.21 1.475.63 1.932.43.448.966.672 1.61.672zm8.928 1.386a3.995 3.995 0 01-1.974-.49 3.633 3.633 0 01-1.386-1.4c-.336-.607-.504-1.307-.504-2.1 0-.784.172-1.48.518-2.086a3.577 3.577 0 011.414-1.4 4.102 4.102 0 012.002-.49c.737 0 1.404.163 2.002.49a3.579 3.579 0 011.414 1.4c.345.607.518 1.302.518 2.086 0 .784-.178 1.48-.532 2.086a3.72 3.72 0 01-1.456 1.414 4.183 4.183 0 01-2.016.49zm0-1.386c.41 0 .793-.098 1.148-.294.364-.196.658-.49.882-.882.224-.392.336-.868.336-1.428 0-.56-.108-1.031-.322-1.414a2.164 2.164 0 00-.854-.882 2.336 2.336 0 00-1.148-.294c-.41 0-.794.098-1.148.294-.346.196-.62.49-.826.882-.206.383-.308.854-.308 1.414 0 .83.21 1.475.63 1.932.43.448.966.672 1.61.672zm8.69-6.58c.597 0 1.124.121 1.582.364.466.233.83.527 1.092.882v-1.12h1.61v7.84c0 .71-.15 1.34-.448 1.89-.299.56-.733.999-1.302 1.316-.56.317-1.232.476-2.016.476-1.046 0-1.914-.247-2.604-.742a2.688 2.688 0 01-1.176-1.988h1.582c.121.401.378.723.77.966.401.252.877.378 1.428.378.644 0 1.162-.196 1.554-.588.401-.392.602-.961.602-1.708v-1.288c-.271.364-.64.672-1.106.924-.458.243-.98.364-1.568.364a3.525 3.525 0 01-1.848-.504 3.732 3.732 0 01-1.316-1.428c-.318-.616-.476-1.311-.476-2.086 0-.775.158-1.46.476-2.058a3.549 3.549 0 013.164-1.89zm2.674 3.976c0-.532-.112-.994-.336-1.386-.215-.392-.5-.69-.854-.896a2.256 2.256 0 00-1.148-.308 2.25 2.25 0 00-1.148.308c-.355.196-.644.49-.868.882-.215.383-.322.84-.322 1.372 0 .532.107.999.322 1.4.224.401.513.71.868.924a2.301 2.301 0 002.296 0c.354-.205.639-.504.854-.896.224-.401.336-.868.336-1.4zm5.302-6.496V39h-1.596V28.64h1.596zm9.165 6.314c0 .29-.018.55-.056.784h-5.894c.047.616.276 1.11.686 1.484.411.373.915.56 1.512.56.859 0 1.466-.36 1.82-1.078h1.722a3.496 3.496 0 01-1.274 1.75c-.606.448-1.362.672-2.268.672-.737 0-1.4-.163-1.988-.49a3.667 3.667 0 01-1.372-1.4c-.326-.607-.49-1.307-.49-2.1 0-.793.159-1.489.476-2.086a3.45 3.45 0 011.358-1.4c.588-.327 1.26-.49 2.016-.49.728 0 1.377.159 1.946.476.57.317 1.013.765 1.33 1.344.318.57.476 1.227.476 1.974zm-1.666-.504c-.009-.588-.219-1.06-.63-1.414-.41-.355-.919-.532-1.526-.532-.55 0-1.022.177-1.414.532-.392.345-.625.817-.7 1.414h4.27zm13.678-2.282c0 .495-.117.961-.35 1.4-.234.439-.607.798-1.12 1.078-.514.27-1.172.406-1.974.406h-1.764V39h-1.596v-9.73h3.36c.746 0 1.376.13 1.89.392.522.252.91.597 1.162 1.036.261.439.392.929.392 1.47zm-3.444 1.582c.606 0 1.059-.135 1.358-.406.298-.28.448-.672.448-1.176 0-1.064-.602-1.596-1.806-1.596h-1.764v3.178h1.764zm6.562-5.11V39h-1.596V28.64h1.596zm1.563 6.468c0-.775.159-1.46.476-2.058a3.563 3.563 0 013.164-1.89c.607 0 1.134.121 1.582.364.458.233.822.527 1.092.882v-1.12h1.61V39h-1.61v-1.148c-.27.364-.639.667-1.106.91-.466.243-.998.364-1.596.364a3.43 3.43 0 01-1.82-.504 3.748 3.748 0 01-1.316-1.428c-.317-.616-.476-1.311-.476-2.086zm6.314.028c0-.532-.112-.994-.336-1.386a2.254 2.254 0 00-.854-.896 2.25 2.25 0 00-1.148-.308c-.41 0-.793.103-1.148.308a2.26 2.26 0 00-.868.882c-.214.383-.322.84-.322 1.372 0 .532.108.999.322 1.4.224.401.514.71.868.924.364.205.747.308 1.148.308a2.25 2.25 0 001.148-.308c.355-.205.64-.504.854-.896.224-.401.336-.868.336-1.4zm10.65-3.85l-4.732 11.34h-1.652l1.568-3.752-3.038-7.588h1.778l2.17 5.88 2.254-5.88h1.652zM26.515 8.433a2.95 2.95 0 00-2.83-.135l15.264 15.297 4.992-5.014L26.515 8.433zm-4.233 1.28a3.11 3.11 0 00-.296 1.329v27.982c0 .47.104.916.299 1.315l15.259-15.331L22.282 9.714zm16.67 16.705L23.71 41.731c.405.187.835.269 1.264.269.531 0 1.06-.127 1.54-.415l17.429-10.163-4.993-5.004zm11.625-3.972a.308.308 0 00-.018-.012l-4.839-2.817-5.363 5.389 5.367 5.378 4.853-2.83A2.967 2.967 0 0052.014 25a2.965 2.965 0 00-1.437-2.554z" fill="#fff"/></svg>